<svg width="200" height="190" viewBox="0 0 200 190" fill="none" xmlns="http://www.w3.org/2000/svg">
<g clip-path="url(#clip0_39771_13869)">
<path d="M199.968 14.5336C199.876 14.3814 199.661 14.28 199.445 14.3307C197.568 14.9901 195.692 15.5481 193.753 16.1315C188.43 17.7548 182.892 18.8201 177.353 19.8853C171.015 21.0521 164.553 21.8891 158.245 23.1826C152.799 24.2732 147.384 25.5921 142.153 27.3169C138.215 28.5851 134.338 29.9547 130.707 31.7048C126.399 33.6578 122.922 36.5746 119.538 39.4661C116.43 42.1546 113.292 44.8431 110.553 47.8107C109.015 49.4847 107.722 51.3109 106.492 53.1371C108.43 47.1005 111.138 41.0132 116.092 36.1941C116.461 35.8137 116.03 35.3571 115.507 35.5601C114.245 36.0673 113.076 36.7268 111.876 37.3355C102.707 42.459 94.5223 48.8252 87.4761 55.851C84.03 59.3258 80.7069 62.8767 77.9684 66.7573C74.7992 71.2974 72.3992 76.1926 70.6761 81.24C70.4915 78.247 70.7992 75.2541 71.2915 72.2866C71.3838 71.754 71.4761 71.2467 71.5069 70.7141C71.5069 70.359 71.63 69.8517 71.1992 69.6488C70.8915 69.522 70.5838 69.6488 70.3684 69.8517C70.0915 70.08 69.8761 70.3336 69.63 70.5872C69.1377 71.1199 68.6454 71.6779 68.1838 72.2359C66.6454 74.0367 65.2607 75.939 64.0607 77.9173C61.1069 82.914 58.3992 87.9613 55.6608 93.034C52.8915 98.1068 50.3377 103.281 47.6608 108.379C45.1069 113.198 42.3069 117.941 39.4146 122.633C37.8454 125.144 36.2454 127.655 34.3684 130.04C33.5684 131.054 32.7377 132.043 31.8761 133.007C31.9992 132.804 32.1223 132.627 32.2454 132.424C34.7684 128.34 36.4915 123.978 38.0608 119.59C39.3531 116.774 40.6454 113.959 42.0915 111.22C43.7838 108.1 45.2915 104.93 46.7377 101.734C49.63 95.6972 53.1377 89.9143 57.1377 84.309C59.7223 80.682 62.4915 77.1311 65.0146 73.4533C67.3838 70.0039 69.2607 66.3515 71.4146 62.826C73.0146 60.1881 74.6454 57.5503 76.03 54.8364C76.43 54.0755 76.83 53.2892 77.1992 52.503C77.3531 52.1225 77.5377 51.7167 77.63 51.3109C77.63 51.1587 77.6608 50.9811 77.5377 50.829C77.2607 50.4739 76.7069 50.6007 76.3684 50.829C75.3838 51.4377 74.4607 52.0718 73.5069 52.7312C70.43 54.8871 67.23 56.9162 63.9377 58.8439C70.9838 51.7928 78.4915 44.5895 81.8761 35.7122C82.1223 34.9513 82.7992 33.0491 82.1223 32.415C81.6608 32.0852 81.1377 32.5418 80.8607 32.8208C77.9992 35.763 74.9838 38.6037 71.63 41.1654C72.9223 39.4914 74.1531 37.7667 75.2607 35.9912C77.1069 32.9476 78.9223 29.8786 80.43 26.7081C82.2146 22.8275 83.5684 18.8454 84.9838 14.8887C86.43 10.5769 87.7223 6.21433 89.2915 1.92787C89.4454 1.52205 89.5992 1.11624 89.6915 0.685053C89.6915 0.558235 89.7531 0.406053 89.6915 0.279235C89.5992 0.0509625 89.2607 -0.101219 88.9838 -0.0251284C88.7377 0.0255989 88.4915 0.152417 88.2761 0.304599C85.1377 2.73951 82.3377 5.45342 79.3223 7.96442C77.1069 9.84133 74.8607 11.7436 72.7377 13.6966C68.4607 17.7041 64.6454 22.0666 61.63 26.7842C58.8915 31.0707 56.8915 35.7122 55.6608 40.4552C53.9992 46.644 53.4454 52.9849 52.3992 59.2497C51.1992 56.5358 50.4915 53.6697 50.3377 50.7529C50.2761 49.7891 50.2146 48.7745 50.1531 47.7346C50.1531 47.2527 50.1531 46.2128 49.2608 46.4411C48.9838 46.5679 48.83 46.8215 48.6761 47.0751C48.3992 47.5317 48.1531 48.0136 47.9069 48.4955C47.1377 49.9666 46.2761 51.387 45.4761 52.8327C43.1992 56.8909 41.23 61.1012 40.2146 65.4891C39.3223 69.0908 38.8608 72.7685 38.8608 76.4209C38.8608 81.5443 39.8146 86.5917 39.7838 91.7405C38.0915 89.4831 36.3684 87.2004 35.6608 84.5626C35.2915 83.3198 35.0146 82.077 34.7684 80.8341C34.7069 80.479 34.6146 80.0986 34.5531 79.7435C34.4915 79.4899 34.4915 79.1601 34.2454 78.9826C33.6915 78.6275 33.3223 79.2362 33.1992 79.6167C32.1531 82.356 31.63 85.2474 31.5069 88.1389C31.3531 91.0557 31.6915 93.9725 32.03 96.8893C32.3377 99.5271 32.6761 102.165 32.8915 104.828C32.7377 105.792 32.6761 106.756 32.5838 107.72C32.2146 112.463 31.5684 117.206 30.4608 121.873C29.7223 125.626 28.7684 129.329 27.1684 132.931C26.2454 135.493 25.0454 137.978 23.5377 140.337C23.2915 140.667 23.0761 141.022 22.8608 141.352C19.8761 145.74 17.1377 150.229 14.1223 154.592C12.3069 157.153 10.5531 159.766 8.92229 162.429C7.72229 164.154 6.6146 165.904 5.66076 167.705C4.82999 169.226 4.02999 170.774 3.29153 172.321C3.0146 172.98 2.2146 174.299 2.64537 174.959C3.29153 175.441 3.8146 174.806 4.2146 174.122C4.30691 174.046 4.39922 173.969 4.46076 173.893C4.70691 173.614 4.92229 173.335 5.10691 173.031C5.59922 172.346 6.09153 171.687 6.55306 171.027C8.58383 168.11 10.5531 165.168 12.5531 162.226C15.5377 157.661 18.7992 153.222 22.0915 148.783C22.6454 148.048 23.1684 147.312 23.7223 146.551C24.3992 145.74 25.0761 144.953 25.7838 144.142C27.0454 142.721 28.3992 141.352 29.8761 140.084C31.6915 138.435 33.9684 136.837 36.0915 135.442C39.1684 133.388 41.9377 131.054 44.6454 128.695C50.9531 123.039 56.8915 117.104 63.0454 111.321C67.1377 107.263 71.5377 103.357 76.2454 99.8061C79.7223 97.3966 83.3223 95.0885 86.9838 92.8819C92.83 89.4324 98.9838 86.3634 104.799 82.8632C111.661 78.729 118.368 74.4171 124.522 69.5727C124.707 69.3951 124.922 69.1922 124.799 68.9386C124.676 68.6089 124.184 68.6596 123.845 68.7357C122.461 69.0401 121.138 69.4966 119.784 69.7756C118.399 70.0292 116.984 70.2575 115.599 70.4604C111.815 71.0691 107.938 71.3228 104.092 71.3481C106.276 70.6633 108.492 70.0039 110.707 69.3951C116.215 68.0255 121.784 66.8588 127.168 65.1848C136.738 62.4709 145.107 57.6011 152.768 52.2493C154.645 50.9558 156.553 49.6622 158.276 48.2165C158.584 47.9121 159.045 47.6331 159.107 47.202C159.107 46.6947 158.368 46.6947 157.907 46.7961C153.599 47.5571 149.261 48.2926 144.892 48.6731C141.999 48.9013 138.984 49.0789 136.092 48.6477C139.445 47.8107 142.83 47.0751 146.276 46.4918C149.476 45.9591 152.707 45.4519 155.815 44.6656C160.645 43.4989 164.984 41.2161 168.676 38.4261C170.892 36.6761 172.953 34.7991 174.984 32.8969C177.138 30.8678 179.076 28.6865 181.353 26.7335C184.338 24.1464 187.599 21.7876 191.076 19.6824C193.661 18.0084 196.43 16.5881 199.292 15.2438C199.507 15.1423 199.722 15.0916 199.938 14.9901C200.122 14.8887 200.184 14.7111 200.092 14.5336H199.968ZM31.8146 135.036C31.8146 135.036 31.8146 135.036 31.7531 135.036H31.7838H31.8146ZM39.1684 107.77C41.5377 101.379 43.8146 94.9617 46.2761 88.5954C48.5838 82.077 50.8915 75.5585 53.3223 69.0908C56.03 61.431 58.1838 53.6443 61.0454 46.0099C63.0761 40.6328 65.3531 35.3064 67.9069 30.0815C70.2146 25.3639 72.7992 20.7223 76.3069 16.512C73.4454 22.1173 70.4915 27.672 67.9992 33.3788C65.5992 38.3754 63.5684 43.4735 61.8146 48.6477C57.5377 60.0867 54.9531 71.9061 50.83 83.3705C49.0761 88.4432 47.1069 93.4652 44.9838 98.4619C43.4761 102.038 41.6915 105.614 40.2146 109.191C36.9223 117.13 33.8761 125.144 30.1223 132.956C30.0608 133.007 29.9992 133.058 29.9377 133.109C29.8146 133.083 29.6915 133.109 29.5992 133.134C30.2454 131.46 30.8608 129.761 31.3838 128.061C33.8761 121.264 36.6146 114.542 39.1684 107.77ZM131.661 45.4265C128.092 47.4556 124.522 49.4847 121.138 51.6913C115.507 55.3944 110.03 59.2243 104.584 63.105C101.415 65.4384 98.5531 68.0509 95.5684 70.5619C92.6146 73.0982 89.63 75.5839 86.83 78.2217C83.1069 81.6458 79.2915 85.0191 75.7223 88.57C72.5838 91.6137 69.7223 94.8602 66.8915 98.1068C64.7992 100.415 62.6761 102.723 60.7069 105.107C58.3684 107.872 55.9377 110.56 53.5992 113.325C51.2608 116.115 48.9531 118.905 46.6761 121.72C45.23 123.496 43.7838 125.297 42.0915 126.945C40.0915 128.898 38.03 130.953 35.7531 132.754C34.8915 133.388 34.0608 134.022 33.23 134.681C33.23 134.681 33.23 134.681 33.1992 134.681C32.7992 134.605 32.7992 134.301 32.8915 134.047C34.5223 132.551 36.1531 131.08 37.7531 129.558C39.6915 127.706 41.4454 125.728 43.0761 123.699C51.7531 113.249 60.5223 102.824 69.8454 92.7297C73.3223 89.0012 76.9223 85.3235 80.7992 81.874C87.4761 76.0404 94.3684 70.4097 101.261 64.7282C110.153 57.4235 119.63 50.5753 129.938 44.6656C138.153 40.1001 146.892 36.1941 155.907 32.8208C147.476 36.5492 139.599 41.0893 131.661 45.4519V45.4265Z" fill="#5534DA"/>
<path d="M139.23 173.766C138.984 174.197 138.646 174.578 138.276 174.933C134.4 178.255 128.676 179.98 123.261 180.868C117.784 181.806 112.153 180.944 106.8 179.955C112.123 176.328 118.092 172.092 119.292 166.182C120.461 159.106 112.369 154.515 104.584 154.211C78.5534 153.5 55.0457 165.142 32.9841 175.212C24.6149 178.991 15.2918 183.835 5.35337 181.933C3.96876 181.603 2.55337 180.868 2.1226 179.65C2.15337 179.321 1.96876 178.94 1.56876 178.788C-1.50817 178.281 0.676449 181.857 2.09183 182.491C14.3072 188.249 31.2918 177.571 42.0918 172.954C53.2303 167.932 64.738 162.86 76.8611 159.588C86.9226 157.127 98.8303 154.388 109.2 156.696C114.492 157.964 118.615 162.53 116.923 167.095C114.8 172.371 109.292 176.099 104.153 179.397C96.0611 177.799 87.6611 176.049 79.2918 177.038C74.6765 177.723 69.3534 179.067 67.0457 182.719C63.4457 188.705 72.4611 189.872 77.6918 189.745C87.5072 189.491 96.8611 186.169 104.615 181.274C113.415 183.176 122.123 183.886 130.707 180.893C134.584 179.422 138.984 177.799 141.076 174.527C141.723 173.538 139.815 172.726 139.2 173.715L139.23 173.766ZM77.4149 188.046C74.5841 187.868 69.5995 188.198 68.3995 185.585C68.2149 182.288 72.6457 180.361 75.9688 179.524C84.4918 177.393 93.4764 179.168 101.907 180.792C94.7995 185.078 86.2765 187.843 77.4149 188.046Z" fill="#5534DA"/>
</g>
<defs>
<clipPath id="clip0_39771_13869">
<rect width="200" height="189.796" fill="white"/>
</clipPath>
</defs>
</svg>
